<svg width="100%" height="100%" viewBox="0 0 850 850"><polygon class="a" points="85 581 85 0 0 0 0 581 0 581 0 666 850 666 850 581 85 581"/><polygon class="a" points="182 329 206 323 184 323 43 850 131 850 226 493 182 329"/><polygon class="a" points="206 323 182 329 226 493 322 850 410 850 269 323 206 323"/><polygon class="a" points="622 329 646 323 624 323 483 850 571 850 666 493 622 329"/><polygon class="a" points="646 323 622 329 666 493 762 850 850 850 709 323 646 323"/><polygon class="a" points="497 521 474 527 496 527 637 0 549 0 453 357 497 521"/><polygon class="a" points="474 527 497 521 453 357 357 0 269 0 411 527 474 527"/></svg>